<svg xmlns="http://www.w3.org/2000/svg" version="1.1" xmlns:xlink="http://www.w3.org/1999/xlink" xmlns:svgjs="http://svgjs.dev/svgjs" width="100%" height="100%" viewBox="0 0 1000 600"><rect width="1000" height="600" x="0" y="0" fill="#f0000"/><g><circle r="166.66666666666666" cx="387.1919962565104" cy="409.41427781652374" fill="#fbeaeb" transform="matrix(0.5668281882423035,0,0,0.5668281882423034,0,67.93246023631177)"/><path d="M415.5868790852507 375.85910590106334Q415.5868790852507 367.4397690961232 412.54505417507875 363.2572598446368Q409.47607011392313 359.04759144216666 405.8095847311266 356.7933819105214Q402.1430993483301 354.56633152985984 397.7433168889743 353.371328886578Q393.34353442961844 352.17632624329616 388.97091112124633 352.17632624329616L388.97091112124633 352.17632624329616Q381.69225865762064 352.17632624329616 376.260428460885 353.8330344533005Q370.82859826414943 355.51690181428853 367.2435903343039 358.3686126675747Q363.65858240445846 361.24748267184464 361.838919288552 365.0497638095595Q360.0192561726456 368.8792040982581 360.0192561726456 373.0888725007282L360.0192561726456 373.0888725007282Q360.0192561726456 379.3897955289415 362.27346570429086 383.24639496862375Q364.52767523593616 387.1301535592897 367.9497282598796 389.46584054388603Q371.39894043480666 391.8015275284823 375.5542905353094 393.13232592668254Q379.7096406358121 394.46312432488276 383.51192177352704 395.82108187406664L383.51192177352704 395.82108187406664L402.7949189719384 402.1220049022799Q411.48584728671534 404.8650791516314 418.1398392777164 408.4229279304932Q424.76667211773383 411.9536175583713 429.2479320300407 416.76078728248234Q433.7291919423476 421.595116157577 436.0648789269439 427.8960391857903Q438.4277250625239 434.19696221400363 438.4277250625239 442.50766241500907L438.4277250625239 442.50766241500907Q438.4277250625239 451.4701822396228 434.7340805287437 459.1019036660363Q431.06759514594717 466.7607842434335 424.4679214569134 472.3827284970548Q417.89540691886333 478.00467275067615 408.7699321883475 481.2094525667501Q399.6444574578318 484.41423238282414 388.7536379133769 484.41423238282414L388.7536379133769 484.41423238282414Q377.5912268590853 484.41423238282414 369.66075477185126 481.8884313413421Q361.75744183560096 479.36263029986003 356.35277078984905 475.0986435954226Q350.94809974409714 470.86181604196884 347.7161607770395 465.4028266942496Q344.4570626589981 459.97099649751397 342.6373995430917 454.2404156399579L342.6373995430917 454.2404156399579L335.3859062304497 454.2404156399579L335.3859062304497 437.80912929483276L359.4489140019883 437.80912929483276Q359.4489140019883 448.4283573294508 361.70312353363363 452.800980637823Q363.9301739142952 457.2007630971788 367.9497282598796 460.10679225243234Q371.9692826054639 463.0399805586696 377.50974940613423 464.5065747117882Q383.0502162068045 465.9731688649068 389.73136734878926 465.9731688649068L389.73136734878926 465.9731688649068Q396.2224044338883 465.9731688649068 401.4098022717708 464.45225640982085Q406.624359260637 462.93134395473487 410.2908446434335 460.02531479948135Q413.98448917721373 457.11928564422783 415.9399480480385 452.9639355437251Q417.89540691886333 448.80858544322234 417.89540691886333 443.5397101523888L417.89540691886333 443.5397101523888Q417.89540691886333 437.72765184188177 415.4510833303323 433.65377919433Q413.0067597418013 429.60706569776204 409.2044786040864 426.75535484447585Q405.37503831538777 423.876484840206 400.83946010111356 422.05682172429954Q396.30388188683935 420.2643177593768 392.12137263535294 418.90636021019293L392.12137263535294 418.90636021019293L371.2088263779209 412.9856652957511Q364.31040202806673 410.8944106700079 358.634139472478 407.63531255196654Q352.9578769168893 404.4033735849089 348.9111634203213 399.7319996157163Q344.8372907727696 395.03346649554 342.6373995430917 388.78686176929403Q340.46466746439745 382.54025704304814 340.46466746439745 374.3110342949937L340.46466746439745 374.3110342949937Q340.46466746439745 366.02749324497194 343.69660643145517 358.7488407813462Q346.9557045494965 351.4973474687042 353.25662757770976 346.0655172719686Q359.5575506059231 340.60652792424935 368.6558661854552 337.51038471211007Q377.781340915971 334.4142414999708 389.54125329190356 334.4142414999708L389.54125329190356 334.4142414999708Q397.2544521712681 334.4142414999708 403.79980755833446 336.23390461587724Q410.34516294540083 338.05356773178363 415.6411973872181 341.3398250008087Q420.9372318290353 344.62608226983366 425.011104476587 349.27029708804264Q429.05781797315495 353.8873527552679 431.8280513734901 359.4278195559382L431.8280513734901 359.4278195559382L438.99806723318113 359.4278195559382L438.99806723318113 375.85910590106334L415.5868790852507 375.85910590106334Z " fill="#2f3c7e" transform="matrix(0.5668281882423035,0,0,0.5668281882423034,0,67.93246023631177)"/><path d="M699.7820601303625 368.093786392514Q699.7820601303625 361.5232067429745 697.4081732892387 358.25911233642904Q695.0130910298903 354.9738225116593 692.151709569607 353.2146027990407Q689.2903281093237 351.47657850464634 685.8566703569836 350.54398010277623Q682.4230126046436 349.6113817009061 679.010550270528 349.6113817009061L679.010550270528 349.6113817009061Q673.33017818641 349.6113817009061 669.0910945415458 350.9043022125897Q664.8520108966816 352.2184181424976 662.0542156910712 354.44393705605125Q659.2564204854609 356.69065138782935 657.8363274644314 359.65800993923426Q656.4162344434019 362.6465639088635 656.4162344434019 365.93185373363326L656.4162344434019 365.93185373363326Q656.4162344434019 370.84919076167574 658.1754541560205 373.8589401495293Q659.934673868639 376.8898849556072 662.6052965649035 378.7126909228988Q665.2971146793923 380.5354968901904 668.5400136677134 381.5740723831821Q671.7829126560346 382.61264787617387 674.7502712074395 383.6724187873899L674.7502712074395 383.6724187873899L689.7990181467073 388.5897558154324Q696.5815519784901 390.7304930560888 701.7744294434488 393.5070928434749Q706.9461114901831 396.26249721263656 710.443355497196 400.0140862383414Q713.940599504209 403.78687068227055 715.7634054715006 408.70420771031297Q717.6074068570165 413.62154473835545 717.6074068570165 420.1073427149977L717.6074068570165 420.1073427149977Q717.6074068570165 427.1018307290236 714.7248299785089 433.0577432500578Q711.8634485182255 439.0348511893163 706.7129618897155 443.42230276175076Q701.5836706794298 447.8097543341852 694.462010156058 450.31081368465505Q687.3403496326862 452.81187303512496 678.8409869247334 452.81187303512496L678.8409869247334 452.81187303512496Q670.1296700345375 452.81187303512496 663.9406079130358 450.8406991402631Q657.7727412097584 448.86952524540123 653.5548529831185 445.54184458418285Q649.3369647564787 442.23535934118877 646.8147099877845 437.9750802781002Q644.2712598008659 433.735996633236 642.8511667798364 429.26376338790436L642.8511667798364 429.26376338790436L637.1919901139427 429.26376338790436L637.1919901139427 416.44053536219013L655.9711306606911 416.44053536219013Q655.9711306606911 424.72794388789964 657.7303503733096 428.1404062220153Q659.468374667704 431.57406397435534 662.6052965649035 433.8419737243577Q665.742218462103 436.13107889258436 670.0660837798646 437.27563147669764Q674.389949097626 438.42018406081104 679.604021980809 438.42018406081104L679.604021980809 438.42018406081104Q684.6697269364217 438.42018406081104 688.718051817267 437.23324064024905Q692.7875721163366 436.04629721968706 695.64895357662 433.77838746968473Q698.5315304551276 431.5104777196824 700.0576005672788 428.26757873136125Q701.5836706794298 425.02467974304017 701.5836706794298 420.9127686075219L701.5836706794298 420.9127686075219Q701.5836706794298 416.3769491075172 699.6760830392409 413.19763637386905Q697.7684953990521 410.0395190584452 694.8011368476471 407.8140001448915Q691.8125828780178 405.5672858131135 688.2729480345563 404.14719279208396Q684.7333131910947 402.7482951892788 681.4692187845492 401.68852427806274L681.4692187845492 401.68852427806274L665.148746751822 397.0679231051608Q659.7651105228446 395.43587590188804 655.3352681139614 392.89242571496953Q650.9054257050784 390.3701709462753 647.7473083896546 386.7245590116921Q644.5679956560064 383.0577516588846 642.8511667798364 378.1828054672908Q641.1555333218907 373.30785927569696 641.1555333218907 366.8856475537277L641.1555333218907 366.8856475537277Q641.1555333218907 360.4210449953098 643.677788090585 354.7406729111918Q646.2212382775035 349.08149624529807 651.1385753055458 344.8424126004339Q656.0559123335884 340.5821335373454 663.156377438736 338.16585585977276Q670.2780379621078 335.7495781822002 679.4556540532387 335.7495781822002L679.4556540532387 335.7495781822002Q685.475152828946 335.7495781822002 690.5832486210072 337.16967120322965Q695.6913444130686 338.58976422425917 699.8244509668111 341.154409829402Q703.9575575205538 343.7190554345449 707.136870254202 347.3434719509038Q710.2949875696257 350.94669304903834 712.4569202285065 355.27055836679983L712.4569202285065 355.27055836679983L718.0525106397272 355.27055836679983L718.0525106397272 368.093786392514L699.7820601303625 368.093786392514ZM751.2021447425652 348.2760703527739L751.2021447425652 373.1594913481267L769.3030319061353 373.1594913481267L769.3030319061353 384.41425842524114L751.053776814995 384.41425842524114L750.8418226327518 428.96702753276384Q750.8418226327518 433.50284703276856 751.8803981257436 436.34303307482753Q752.9189736187352 439.18321911688656 755.2292742051862 440.2641854463269Q757.5395747916372 441.3451517757673 760.4433470883693 441.3451517757673L760.4433470883693 441.3451517757673Q763.5802689855688 441.3451517757673 765.9541558266927 440.77287548371066Q768.3492380860409 440.2217946098783 771.1682287098756 438.8864832617461L771.1682287098756 438.8864832617461L774.3899322799724 448.19127186222295Q770.8079066000621 450.0564686659632 766.8443633921141 451.1374349954036Q762.9020156023904 452.21840132484397 757.5395747916372 452.21840132484397L757.5395747916372 452.21840132484397Q752.4738698360245 452.21840132484397 748.7010853920954 450.98906706783333Q744.9494963663906 449.7597328108227 742.3848507612477 446.8559605140907Q739.7990097378805 443.95218821735875 738.5484800626456 439.0560466075406Q737.2767549691863 434.18110041594684 737.2767549691863 426.8898765467804L737.2767549691863 426.8898765467804L737.4887091514296 384.41425842524114L725.1953665813235 384.41425842524114L725.1953665813235 373.1594913481267L737.6370770789998 373.1594913481267L737.6370770789998 354.6770866565188L751.2021447425652 348.2760703527739ZM841.1554996865835 372.71438756541596L841.1554996865835 389.47996338085386L826.9969603127371 389.47996338085386L826.9969603127371 384.71099428038167Q824.5382917987158 384.71099428038167 821.9524507753487 385.6435926822518Q819.3878051702058 386.5761910841219 817.1410908384278 388.46258330608646Q814.9155719248741 390.3701709462753 813.2411338851527 393.31633407945594Q811.5666958454314 396.26249721263656 810.8248562075802 400.2684312570332L810.8248562075802 400.2684312570332L810.8248562075802 437.5299764953895L823.9236246702105 437.5299764953895L823.9236246702105 450.35320452110375L785.6235039388625 450.35320452110375L785.6235039388625 437.5299764953895L796.284799305696 437.5299764953895L796.3695809785933 385.9615239556166L785.6235039388625 385.9615239556166L785.6235039388625 373.1594913481267L810.2949707519722 373.1594913481267L810.2949707519722 383.82078671496015Q811.6302821001043 381.4257044556119 813.3047201398257 379.3697488878528Q815.0003535977714 377.3349887383179 817.0351137473061 375.8089186261668Q819.0910693150653 374.2828485140157 821.5921286655351 373.4138363668186Q824.0719925977808 372.5660196378457 826.9969603127371 372.5660196378457L826.9969603127371 372.5660196378457Q830.8545264295635 372.5660196378457 834.2881841819035 372.5660196378457Q837.7218419342435 372.5660196378457 841.1554996865835 372.71438756541596L841.1554996865835 372.71438756541596ZM902.5374308642171 450.35320452110375L902.5374308642171 443.18915316128323Q898.1499792917826 447.3010642968015 892.8299293174781 449.908100738393Q887.4886839249492 452.51513717998444 880.7061500931665 452.51513717998444L880.7061500931665 452.51513717998444Q875.0469734272727 452.51513717998444 870.3203951632491 450.7347220491415Q865.5938168992255 448.93311150007423 862.1601591468856 445.8385804393233Q858.7265013945456 442.74404937857247 856.840109172581 438.65333366127857Q854.9325215323921 434.5626179439846 854.9325215323921 429.94201677108265L854.9325215323921 429.94201677108265Q854.9325215323921 425.02467974304017 856.373809971646 421.2095044626624Q857.8362938291241 417.4155246005089 860.2525715066967 414.61772939489856Q862.6900446024936 411.8199341892882 865.9117481725904 409.9335419673236Q869.1546471609115 408.02595432713474 872.6942820043731 406.88140174302134Q876.2339168478347 405.7156537406837 879.9219196188666 405.22815912152436Q883.6099223898984 404.740664502365 886.9799938875655 404.740664502365L886.9799938875655 404.740664502365Q892.3424346983187 404.740664502365 895.9880466329018 405.0797911939541Q899.633658567485 405.41891788554324 902.6222125371143 406.01238959582423L902.6222125371143 406.01238959582423L902.6857987917873 399.67495954675223Q902.6857987917873 395.58424382945833 901.4988553712253 392.5744944416047Q900.3119119506633 389.5435496355268 898.1499792917826 387.572375740665Q895.9880466329018 385.60120184580313 892.9782972450482 384.6262126074844Q889.9473524389704 383.6724187873899 886.2169588314899 383.6724187873899L886.2169588314899 383.6724187873899Q882.7197148244769 383.6724187873899 879.5192066726045 384.13871798832497Q876.3186985207319 384.6262126074844 873.5209033151216 385.41044308178425Q870.7231081095113 386.1946735560841 868.3704166866116 387.2120536308515Q866.0389206819362 388.2082382873946 864.3856780604393 389.3315954532836L864.3856780604393 389.3315954532836L859.8498585604345 379.7088755794419Q862.6052629295963 377.9284604485989 865.890552754366 376.4023903364478Q869.1546471609115 374.8763202242967 872.7790636772703 373.79535389485636Q876.382284775405 372.71438756541596 880.155069219334 372.0785250186863Q883.9066582450389 371.44266247195674 887.5734655978464 371.44266247195674L887.5734655978464 371.44266247195674Q894.2712177567319 371.44266247195674 899.633658567485 373.0535142570051Q904.9960993782382 374.6431706238292 908.7264929857187 377.9920467032719Q912.4568865931993 381.36211820093894 914.4704513245098 386.53380024767324Q916.4840160558202 391.70548229440755 916.4840160558202 398.933119908901L916.4840160558202 398.933119908901L916.3992343829229 437.5299764953895L924.983378763773 437.5299764953895L924.983378763773 450.35320452110375L902.5374308642171 450.35320452110375ZM883.7582903174687 440.90004799305655L883.7582903174687 440.90004799305655Q886.5348901048548 440.90004799305655 889.2902944740164 440.2217946098783Q892.0456988431781 439.54354122670003 894.5043673571994 438.3989886425867Q896.9630358712207 437.23324064024905 899.040186857204 435.70717052809795Q901.1385332614119 434.18110041594684 902.5374308642171 432.5490532126741L902.5374308642171 432.5490532126741L902.6222125371143 415.10522401405797L886.5348901048548 415.10522401405797Q882.5077606422336 415.10522401405797 879.1800799810153 415.99543157947943Q875.8735947380212 416.8856391449009 873.4573170604486 418.6024680210709Q871.0198439646517 420.31929689724086 869.6845326165195 422.8627470841594Q868.3492212683873 425.38500185285363 868.3492212683873 428.67029167762337L868.3492212683873 428.67029167762337Q868.3492212683873 431.7224319019256 869.451383016052 433.9903416519279Q870.574740181941 436.2794468201546 872.6306957497002 437.8055169323057Q874.6866513174592 439.3315870444568 877.5056419412939 440.11581751875667Q880.3458279833529 440.90004799305655 883.7582903174687 440.90004799305655ZM962.9867636399805 348.2760703527739L962.9867636399805 373.1594913481267L981.0876508035507 373.1594913481267L981.0876508035507 384.41425842524114L962.8383957124101 384.41425842524114L962.6052461119426 428.96702753276384Q962.6052461119426 433.50284703276856 963.6438216049345 436.34303307482753Q964.6823970979261 439.18321911688656 966.992697684377 440.2641854463269Q969.3029982708281 441.3451517757673 972.2279659857844 441.3451517757673L972.2279659857844 441.3451517757673Q975.3436924647596 441.3451517757673 977.7387747241079 440.77287548371066Q980.1126615652319 440.2217946098783 982.9528476072909 438.8864832617461L982.9528476072909 438.8864832617461L986.1533557591632 448.19127186222295Q982.571330079253 450.0564686659632 978.6289822895293 451.1374349954036Q974.6866344998056 452.21840132484397 969.3029982708281 452.21840132484397L969.3029982708281 452.21840132484397Q964.2372933152154 452.21840132484397 960.4857042895106 450.98906706783333Q956.7129198455815 449.7597328108227 954.1482742404386 446.8559605140907Q951.5836286352957 443.95218821735875 950.3119035418365 439.0560466075406Q949.0401784483772 434.18110041594684 949.0401784483772 426.8898765467804L949.0401784483772 426.8898765467804L949.2733280488447 384.41425842524114L936.9799854787386 384.41425842524114L936.9799854787386 373.1594913481267L949.4216959764151 373.1594913481267L949.4216959764151 354.6770866565188L962.9867636399805 348.2760703527739ZM1066.1024733013019 413.53676306545816L1010.5280867171324 413.53676306545816Q1010.5280867171324 416.82205289022795 1010.9943859180675 419.535066422941Q1011.4818805372269 422.26927537387843 1012.3720881026483 424.72794388789964L1012.3720881026483 424.72794388789964Q1015.1486878900345 432.16753568463633 1021.2105775021902 435.9403201285654Q1027.2936625325701 439.69190915427026 1034.9664039297745 439.69190915427026L1034.9664039297745 439.69190915427026Q1040.9859027054817 439.69190915427026 1046.687470207824 438.0174711145489Q1052.3890377101663 436.34303307482753 1058.6628815045653 432.7610073949173L1058.6628815045653 432.7610073949173L1064.2372764975617 442.23535934118877Q1056.6493167732547 447.4494322243718 1048.9765753760507 449.97168699306593Q1041.2826385606222 452.51513717998444 1033.016425453137 452.51513717998444L1033.016425453137 452.51513717998444Q1025.1953161283627 452.51513717998444 1018.5187593877014 449.908100738393Q1011.8633980652647 447.3010642968015 1007.0520381283438 442.1505776682915Q1002.240678191423 437.0212864580058 999.5276646587098 429.34854506080165Q996.8146511259966 421.6546082453731 996.8146511259966 411.4596120794747L996.8146511259966 411.4596120794747Q996.8146511259966 403.19339897198955 999.1249517124478 395.83858884815015Q1001.4352522988987 388.5049741425351 1006.0134626353521 383.0365562406603Q1010.5916729718053 377.54694292056115 1017.3742068035881 374.3464347686887Q1024.1567406353709 371.1459266168162 1033.1647933807071 371.1459266168162L1033.1647933807071 371.1459266168162Q1041.8973056891273 371.1459266168162 1047.7472411190402 373.79535389485636Q1053.5971765489526 376.4235857546721 1057.2851793199843 380.7898419088823Q1060.9731820910165 385.1560980630924 1062.8595743129808 390.7304930560888Q1064.7671619531698 396.32608346730956 1065.509001591021 402.1336280607735L1065.509001591021 402.1336280607735Q1065.8905191190588 404.97381410283253 1065.9964962101803 407.8775863995645Q1066.1024733013019 410.7813586962965 1066.1024733013019 413.53676306545816L1066.1024733013019 413.53676306545816ZM1032.210999560613 382.7610158037441L1032.210999560613 382.7610158037441Q1027.3572487872434 382.7610158037441 1023.7540276891087 384.13871798832497Q1020.1296111727498 385.51642017290584 1017.6073564040556 388.102261196273Q1015.0639062171371 390.66690680141585 1013.537836104986 394.39730040889634Q1012.011765992835 398.12769401637684 1011.2699263549837 402.7482951892788L1011.2699263549837 402.7482951892788L1051.2868759625017 402.7482951892788Q1050.9901401073612 398.4244298715173 1049.9091737779208 394.7576225187098Q1048.8282074484805 391.11201058412655 1046.5814931167024 388.4413878878621Q1044.3559742031487 385.74956977337337 1040.8375347779115 384.2658904976709Q1037.3402907708983 382.7610158037441 1032.210999560613 382.7610158037441ZM1141.4309896705388 444.69402785521004L1141.4309896705388 443.570670689321Q1137.6370098083853 447.597800151942 1132.6136956892215 449.8233190654957Q1127.5903815700572 452.07003339727373 1121.168169848088 452.07003339727373L1121.168169848088 452.07003339727373Q1113.3470605233135 452.07003339727373 1106.6069175279795 449.35701986456064Q1099.8667745326452 446.6228109136232 1094.9070466681542 441.3663471939916Q1089.9473188036632 436.13107889258436 1087.1495235980528 428.4795329136045Q1084.3729238106666 420.8491823528489 1084.3729238106666 411.014508296764L1084.3729238106666 411.014508296764Q1084.3729238106666 402.0700418061005 1087.0435465069313 394.73642710048546Q1089.73536462142 387.3816169766461 1094.6527016494624 382.20993492991175Q1099.5700386775047 377.03825288317745 1106.500940436858 374.1556760046698Q1113.4318421962107 371.2942945443865 1121.910009485939 371.2942945443865L1121.910009485939 371.2942945443865Q1127.7387494976274 371.2942945443865 1132.3805460887538 372.58721505607Q1137.0435380981044 373.90133098597795 1141.4309896705388 377.1018391378504L1141.4309896705388 377.1018391378504L1141.4309896705388 373.1594913481267L1155.2927931892448 373.1594913481267L1155.2927931892448 447.3010642968015Q1155.2927931892448 465.63510106083913 1146.6238671354974 475.02467133421334Q1137.9337456635258 484.41424160758754 1119.5997088994882 484.41424160758754L1119.5997088994882 484.41424160758754Q1115.5937748550914 484.41424160758754 1111.1851278644326 483.8207698973065Q1106.7976762919984 483.2061027688012 1102.5162018106853 481.9131822571177Q1098.2135319111483 480.59906632720975 1094.165207030303 478.58550159589925Q1090.0956867312334 476.5931322828131 1086.6832243971176 473.6681645678568L1086.6832243971176 473.6681645678568L1094.1228161938543 462.4345929089667Q1096.3695305256324 464.36337596737985 1099.2309119859158 465.9954231706526Q1102.0922934461992 467.64866579214964 1105.377583270969 468.793218376263Q1108.6628730957386 469.9589663786006 1112.1601171027514 470.6160243435546Q1115.6573611097647 471.29427772673284 1119.1546051167775 471.29427772673284L1119.1546051167775 471.29427772673284Q1124.8985634555684 471.29427772673284 1129.1164516822082 470.10733430617086Q1133.313144490624 468.8991954673846 1136.0473534415612 465.889446079531Q1138.7603669742743 462.8796966916774 1140.0956783224065 457.72921006316744Q1141.4309896705388 452.57872343465743 1141.4309896705388 444.69402785521004L1141.4309896705388 444.69402785521004ZM1122.9697803971553 439.9886450094108L1122.9697803971553 439.9886450094108Q1126.382242731271 439.9886450094108 1129.2224287733297 439.3315870444568Q1132.0626148153888 438.65333366127857 1134.3729154018397 437.57236733183817Q1136.6620205700665 436.49140100239777 1138.4212402826852 435.0713079813683Q1140.1804599953039 433.6512149603388 1141.4309896705388 432.10394942996334L1141.4309896705388 432.10394942996334L1141.4309896705388 389.8402854906673Q1137.6370098083853 386.4914094112246 1132.6772819438943 385.00773013552214Q1127.7387494976274 383.50285544159533 1122.5246766144446 383.50285544159533L1122.5246766144446 383.50285544159533Q1117.5861441681777 383.50285544159533 1113.2834742686405 385.34685682711125Q1108.959608950879 387.1696627944029 1105.716709962558 390.66690680141585Q1102.473810974237 394.1641508084288 1100.6086141704966 399.22985576404153Q1098.7434173667561 404.2955607196542 1098.7434173667561 410.8661403691938L1098.7434173667561 410.8661403691938Q1098.7434173667561 418.0089963107899 1100.5238324975994 423.45621879444036Q1102.3254430466666 428.88224585986654 1105.5259511985391 432.59144404912274Q1108.7264593504115 436.2794468201546 1113.198692595743 438.1234482056705Q1117.6709258410751 439.9886450094108 1122.9697803971553 439.9886450094108ZM1219.748060009405 450.35320452110375L1219.748060009405 443.18915316128323Q1215.3606084369703 447.3010642968015 1210.0405584626658 449.908100738393Q1204.699313070137 452.51513717998444 1197.9167792383541 452.51513717998444L1197.9167792383541 452.51513717998444Q1192.2576025724604 452.51513717998444 1187.5310243084368 450.7347220491415Q1182.8044460444135 448.93311150007423 1179.3707882920735 445.8385804393233Q1175.9371305397335 442.74404937857247 1174.0507383177687 438.65333366127857Q1172.1431506775798 434.5626179439846 1172.1431506775798 429.94201677108265L1172.1431506775798 429.94201677108265Q1172.1431506775798 425.02467974304017 1173.5844391168337 421.2095044626624Q1175.0469229743117 417.4155246005089 1177.4632006518846 414.61772939489856Q1179.9006737476814 411.8199341892882 1183.122377317778 409.9335419673236Q1186.3652763060993 408.02595432713474 1189.9049111495608 406.88140174302134Q1193.4445459930225 405.7156537406837 1197.1325487640543 405.22815912152436Q1200.8205515350862 404.740664502365 1204.1906230327531 404.740664502365L1204.1906230327531 404.740664502365Q1209.5530638435064 404.740664502365 1213.1986757780896 405.0797911939541Q1216.844287712673 405.41891788554324 1219.832841682302 406.01238959582423L1219.832841682302 406.01238959582423L1219.8964279369752 399.67495954675223Q1219.8964279369752 395.58424382945833 1218.709484516413 392.5744944416047Q1217.522541095851 389.5435496355268 1215.3606084369703 387.572375740665Q1213.1986757780896 385.60120184580313 1210.188926390236 384.6262126074844Q1207.1579815841583 383.6724187873899 1203.4275879766776 383.6724187873899L1203.4275879766776 383.6724187873899Q1199.9303439696646 383.6724187873899 1196.7298358177923 384.13871798832497Q1193.52932766592 384.6262126074844 1190.7315324603094 385.41044308178425Q1187.9337372546988 386.1946735560841 1185.5810458317994 387.2120536308515Q1183.2495498271242 388.2082382873946 1181.596307205627 389.3315954532836L1181.596307205627 389.3315954532836L1177.0604877056223 379.7088755794419Q1179.8158920747842 377.9284604485989 1183.101181899554 376.4023903364478Q1186.3652763060993 374.8763202242967 1189.9896928224582 373.79535389485636Q1193.5929139205928 372.71438756541596 1197.365698364522 372.0785250186863Q1201.138482808451 371.44266247195674 1204.784094743034 371.44266247195674L1204.784094743034 371.44266247195674Q1211.4818469019197 371.44266247195674 1216.844287712673 373.0535142570051Q1222.2067285234261 374.6431706238292 1225.9371221309066 377.9920467032719Q1229.667515738387 381.36211820093894 1231.6810804696975 386.53380024767324Q1233.694645201008 391.70548229440755 1233.694645201008 398.933119908901L1233.694645201008 398.933119908901L1233.6098635281107 437.5299764953895L1242.1940079089607 437.5299764953895L1242.1940079089607 450.35320452110375L1219.748060009405 450.35320452110375ZM1200.9689194626565 440.90004799305655L1200.9689194626565 440.90004799305655Q1203.7455192500424 440.90004799305655 1206.500923619204 440.2217946098783Q1209.2563279883657 439.54354122670003 1211.7149965023873 438.3989886425867Q1214.1736650164084 437.23324064024905 1216.2508160023917 435.70717052809795Q1218.3491624065996 434.18110041594684 1219.748060009405 432.5490532126741L1219.748060009405 432.5490532126741L1219.832841682302 415.10522401405797L1203.7455192500424 415.10522401405797Q1199.7183897874215 415.10522401405797 1196.390709126203 415.99543157947943Q1193.084223883209 416.8856391449009 1190.6679462056363 418.6024680210709Q1188.2304731098395 420.31929689724086 1186.8951617617072 422.8627470841594Q1185.559850413575 425.38500185285363 1185.559850413575 428.67029167762337L1185.559850413575 428.67029167762337Q1185.559850413575 431.7224319019256 1186.6620121612398 433.9903416519279Q1187.7853693271286 436.2794468201546 1189.841324894888 437.8055169323057Q1191.897280462647 439.3315870444568 1194.7162710864818 440.11581751875667Q1197.5564571285408 440.90004799305655 1200.9689194626565 440.90004799305655ZM1251.8803140374753 385.9615239556166L1251.8803140374753 373.1594913481267L1276.3186312501175 373.1594913481267L1276.3186312501175 385.9615239556166L1272.7366055702073 385.9615239556166L1286.2168915608754 435.21967590893854L1304.6992962524832 373.1594913481267L1316.3355808576357 373.1594913481267L1333.991364238495 435.0713079813683L1348.065121939444 385.9615239556166L1343.5928886941124 385.9615239556166L1343.5928886941124 373.1594913481267L1368.0524013249787 373.1594913481267L1368.0524013249787 385.9615239556166L1361.418235420766 385.9615239556166L1340.2440126146694 451.5401479416657L1327.4207845889555 451.5401479416657L1309.9133691356665 389.9250671635646L1292.4907353552744 451.5401479416657L1279.5191394019898 451.5401479416657L1258.514479941688 385.9615239556166L1251.8803140374753 385.9615239556166ZM1379.434340911439 347.21629944155785L1379.434340911439 334.4142668340679L1406.649257911467 334.4142668340679L1406.649257911467 347.21629944155785L1406.5008899838967 347.21629944155785L1406.5008899838967 404.88903242993524L1419.896394301668 404.88903242993524L1438.2304310657055 385.9615239556166L1433.6098298928036 385.9615239556166L1433.6098298928036 373.1594913481267L1462.901897878815 373.1594913481267L1462.901897878815 385.9615239556166L1453.130810077403 385.9615239556166L1429.6674821030797 410.1878869860154L1455.2927427362838 437.5299764953895L1464.618726754985 437.5299764953895L1464.618726754985 450.35320452110375L1448.2982547222582 450.35320452110375L1416.6958861497951 415.84706365190914L1406.5008899838967 415.84706365190914L1406.5008899838967 437.5299764953895L1412.9019062876419 437.5299764953895L1412.9019062876419 450.35320452110375L1379.8794446941497 450.35320452110375L1379.8794446941497 437.5299764953895L1392.5543047922938 437.5299764953895L1392.5543047922938 347.21629944155785L1379.434340911439 347.21629944155785ZM1521.2528842503707 450.35320452110375L1521.2528842503707 443.18915316128323Q1516.844237259712 447.3010642968015 1511.5241872854076 449.908100738393Q1506.1829418928787 452.51513717998444 1499.4216034793203 452.51513717998444L1499.4216034793203 452.51513717998444Q1493.7412313952022 452.51513717998444 1489.0146531311784 450.7347220491415Q1484.288074867155 448.93311150007423 1480.854417114815 445.8385804393233Q1477.420759362475 442.74404937857247 1475.5343671405103 438.65333366127857Q1473.6267795003214 434.5626179439846 1473.6267795003214 429.94201677108265L1473.6267795003214 429.94201677108265Q1473.6267795003214 425.02467974304017 1475.0892633577996 421.2095044626624Q1476.5305517970537 417.4155246005089 1478.9680248928503 414.61772939489856Q1481.3843025704232 411.8199341892882 1484.6272015587442 409.9335419673236Q1487.8701005470652 408.02595432713474 1491.4097353905267 406.88140174302134Q1494.9493702339882 405.7156537406837 1498.6373730050204 405.22815912152436Q1502.3253757760522 404.740664502365 1505.6742518554947 404.740664502365L1505.6742518554947 404.740664502365Q1511.0366926662482 404.740664502365 1514.6823046008312 405.0797911939541Q1518.3491119536388 405.41891788554324 1521.316470505044 406.01238959582423L1521.316470505044 406.01238959582423L1521.401252177941 399.67495954675223Q1521.401252177941 395.58424382945833 1520.193113339155 392.5744944416047Q1519.0061699185926 389.5435496355268 1516.844237259712 387.572375740665Q1514.6823046008312 385.60120184580313 1511.6725552129778 384.6262126074844Q1508.6416104068999 383.6724187873899 1504.9324122176436 383.6724187873899L1504.9324122176436 383.6724187873899Q1501.4139727924062 383.6724187873899 1498.2134646405339 384.13871798832497Q1495.0129564886615 384.6262126074844 1492.2151612830512 385.41044308178425Q1489.4173660774404 386.1946735560841 1487.0858700727654 387.2120536308515Q1484.7331786498657 388.2082382873946 1483.1011314465932 389.3315954532836L1483.1011314465932 389.3315954532836L1478.5441165283642 379.7088755794419Q1481.2995208975258 377.9284604485989 1484.5848107222955 376.4023903364478Q1487.8701005470652 374.8763202242967 1491.4733216452 373.79535389485636Q1495.0977381615585 372.71438756541596 1498.8493271872635 372.0785250186863Q1502.6221116311926 371.44266247195674 1506.2677235657757 371.44266247195674L1506.2677235657757 371.44266247195674Q1512.9654757246612 371.44266247195674 1518.3491119536388 373.0535142570051Q1523.7115527643919 374.6431706238292 1527.4207509536482 377.9920467032719Q1531.1511445611286 381.36211820093894 1533.164709292439 386.53380024767324Q1535.1782740237495 391.70548229440755 1535.1782740237495 398.933119908901L1535.1782740237495 398.933119908901L1535.1146877690767 437.5299764953895L1543.6776367317025 437.5299764953895L1543.6776367317025 450.35320452110375L1521.2528842503707 450.35320452110375ZM1502.4737437036224 440.90004799305655L1502.4737437036224 440.90004799305655Q1505.229148072784 440.90004799305655 1507.9845524419457 440.2217946098783Q1510.7399568111077 439.54354122670003 1513.198625325129 438.3989886425867Q1515.65729383915 437.23324064024905 1517.7344448251333 435.70717052809795Q1519.8327912293412 434.18110041594684 1521.2528842503707 432.5490532126741L1521.2528842503707 432.5490532126741L1521.316470505044 415.10522401405797L1505.229148072784 415.10522401405797Q1501.2020186101631 415.10522401405797 1497.8743379489447 415.99543157947943Q1494.5678527059508 416.8856391449009 1492.151575028378 418.6024680210709Q1489.7352973508055 420.31929689724086 1488.3787905844488 422.8627470841594Q1487.0434792363167 425.38500185285363 1487.0434792363167 428.67029167762337L1487.0434792363167 428.67029167762337Q1487.0434792363167 431.7224319019256 1488.1668364022057 433.9903416519279Q1489.2689981498702 436.2794468201546 1491.3249537176298 437.8055169323057Q1493.3809092853885 439.3315870444568 1496.1998999092234 440.11581751875667Q1499.0400859512824 440.90004799305655 1502.4737437036224 440.90004799305655Z " fill="#fbeaeb" transform="matrix(0.5668281882423035,0,0,0.5668281882423034,0,67.93246023631177)"/></g></svg>